<svg width="61" height="63" viewBox="0 0 61 63" fill="none" xmlns="http://www.w3.org/2000/svg">
<g clip-path="url(#clip0_12_63)">
<path d="M28.6468 8.78115C29.5449 6.01722 33.4551 6.01722 34.3532 8.78115L37.8986 19.693C38.3003 20.9291 39.4521 21.766 40.7518 21.766H52.2252C55.1314 21.766 56.3397 25.4848 53.9886 27.193L44.7064 33.9369C43.6549 34.7009 43.215 36.055 43.6166 37.291L47.1621 48.2029C48.0601 50.9668 44.8967 53.2652 42.5455 51.557L33.2634 44.8131C32.2119 44.0491 30.7881 44.0491 29.7366 44.8131L20.4545 51.557C18.1033 53.2652 14.9399 50.9668 15.8379 48.2029L19.3834 37.291C19.785 36.055 19.3451 34.7009 18.2936 33.9369L9.01141 27.193C6.66027 25.4848 7.8686 21.766 10.7748 21.766H22.2482C23.5479 21.766 24.6997 20.9291 25.1014 19.693L28.6468 8.78115Z" fill="#FDE916"/>
</g>
<defs>
<clipPath id="clip0_12_63">
<rect width="61" height="63" fill="white"/>
</clipPath>
</defs>
</svg>
