<svg width="1148" height="763" viewBox="0 0 1148 763" fill="none" xmlns="http://www.w3.org/2000/svg">
<path d="M737 710V392C737 380.954 745.954 372 757 372H776.5" stroke="#FFCC00" stroke-width="7" stroke-linecap="round" stroke-dasharray="14 14"/>
<path d="M738.5 482V389C738.5 382.649 733.351 377.5 727 377.5V377.5H459.5C448.454 377.5 439.5 386.454 439.5 397.5V482" stroke="#FFCC00" stroke-width="7" stroke-linecap="round" stroke-dasharray="14 14"/>
<path d="M514.5 378L136.494 368.514C125.259 368.232 116 377.262 116 388.5V388.5" stroke="#FFCC00" stroke-width="7" stroke-linecap="round" stroke-dasharray="14 14"/>
<path d="M268 371.5L198.117 363.114C188.065 361.908 180.5 353.381 180.5 343.257V286" stroke="#FFCC00" stroke-width="7" stroke-linecap="round" stroke-dasharray="14 14"/>
<path d="M758.5 713L695.97 753.8C693.007 755.733 691.525 756.7 689.927 757.385C688.508 757.992 687.024 758.434 685.504 758.7C683.791 759 682.022 759 678.484 759H36C24.7989 759 19.1984 759 14.9202 756.82C11.1569 754.903 8.09734 751.843 6.17987 748.08C4 743.802 4 738.201 4 727V36C4 24.7989 4 19.1984 6.17987 14.9202C8.09734 11.1569 11.1569 8.09734 14.9202 6.17987C19.1984 4 24.7989 4 36 4H1112C1123.2 4 1128.8 4 1133.08 6.17987C1136.84 8.09734 1139.9 11.1569 1141.82 14.9202C1144 19.1984 1144 24.799 1144 36V727C1144 738.201 1144 743.802 1141.82 748.08C1139.9 751.843 1136.84 754.903 1133.08 756.82C1128.8 759 1123.2 759 1112 759L773.18 759" stroke="white" stroke-width="7" stroke-linecap="round"/>
<rect x="49" y="386" width="150" height="340" rx="15" fill="#D9D9D9"/>
<path d="M135 710.086C135 710.763 134.57 710.939 133.711 710.613L108.184 700.887C107.389 700.587 106.992 700.158 106.992 699.598L106.992 696.863C106.992 696.303 107.389 695.874 108.184 695.574L133.711 685.848C134.57 685.522 135 685.698 135 686.375L135 688.367C135 689.057 134.681 689.526 134.043 689.773L127.578 692.215L127.578 704.246L134.043 706.687C134.681 706.935 135 707.404 135 708.094L135 710.086ZM124.375 703.016L124.375 693.445L116.562 696.434C115.833 696.707 115.026 696.98 114.141 697.254C113.255 697.514 111.999 697.827 110.371 698.191L110.371 698.27C111.999 698.634 113.255 698.953 114.141 699.227C115.026 699.487 115.833 699.754 116.562 700.027L124.375 703.016ZM141.055 683.797C141.055 684.318 140.762 684.578 140.176 684.578L133.301 684.578C132.715 684.578 132.422 684.285 132.422 683.699L132.422 682.449C131.172 681.108 129.212 680.242 126.543 679.852C123.874 679.448 121.647 679.246 119.863 679.246L115.371 679.246C114.785 679.246 114.492 678.836 114.492 678.016L114.492 666.98C114.492 666.395 114.785 666.102 115.371 666.102L132.422 666.102L132.422 663.777C132.422 663.191 132.715 662.898 133.301 662.898L140.176 662.898C140.762 662.898 141.055 663.159 141.055 663.68L141.055 665.125C141.055 665.646 140.762 665.906 140.176 665.906L135 665.906L135 681.57L140.176 681.57C140.762 681.57 141.055 681.831 141.055 682.352L141.055 683.797ZM132.422 679.012L132.422 669.539L117.07 669.539L117.07 676.238L120.937 676.238C124.349 676.238 127.012 676.551 128.926 677.176C130.84 677.788 132.005 678.4 132.422 679.012ZM135 658.152C135 658.738 134.707 659.031 134.121 659.031L115.371 659.031C114.785 659.031 114.492 658.738 114.492 658.152L114.492 654.441C114.492 654.038 114.746 653.745 115.254 653.562L128.145 649.09C128.418 648.999 128.919 648.829 129.648 648.582C130.378 648.335 131.068 648.126 131.719 647.957L131.719 647.879C131.068 647.71 130.378 647.501 129.648 647.254C128.919 647.007 128.418 646.837 128.145 646.746L115.254 642.273C114.746 642.091 114.492 641.798 114.492 641.395L114.492 637.684C114.492 637.098 114.785 636.805 115.371 636.805L134.121 636.805C134.707 636.805 135 637.098 135 637.684L135 639.363C135 639.949 134.707 640.242 134.121 640.242L119.375 640.242C118.984 640.242 118.594 640.229 118.203 640.203L118.203 640.242L133.809 646.102C134.603 646.401 135 646.753 135 647.156L135 648.68C135 649.083 134.603 649.435 133.809 649.734L118.203 655.594L118.203 655.633C118.594 655.607 118.984 655.594 119.375 655.594L134.121 655.594C134.707 655.594 135 655.887 135 656.473L135 658.152ZM135 630.379C135 630.965 134.707 631.258 134.121 631.258L115.371 631.258C114.785 631.258 114.492 630.965 114.492 630.379L114.492 628.699C114.492 628.113 114.785 627.82 115.371 627.82L129.785 627.82C130.176 627.82 130.566 627.833 130.957 627.859L130.957 627.82L115.449 618.875C114.811 618.51 114.492 617.951 114.492 617.195L114.492 614.832C114.492 614.246 114.785 613.953 115.371 613.953L134.121 613.953C134.707 613.953 135 614.246 135 614.832L135 616.512C135 617.098 134.707 617.391 134.121 617.391L119.707 617.391C119.316 617.391 118.926 617.378 118.535 617.352L118.535 617.391L134.043 626.336C134.681 626.701 135 627.26 135 628.016L135 630.379ZM135 607.527C135 608.113 134.707 608.406 134.121 608.406L115.371 608.406C114.785 608.406 114.492 608.113 114.492 607.527L114.492 605.848C114.492 605.262 114.785 604.969 115.371 604.969L123.008 604.969L123.008 595.516L115.371 595.516C114.785 595.516 114.492 595.223 114.492 594.637L114.492 592.957C114.492 592.371 114.785 592.078 115.371 592.078L134.121 592.078C134.707 592.078 135 592.371 135 592.957L135 594.637C135 595.223 134.707 595.516 134.121 595.516L125.586 595.516L125.586 604.969L134.121 604.969C134.707 604.969 135 605.262 135 605.848L135 607.527ZM135 585.652C135 586.238 134.707 586.531 134.121 586.531L115.371 586.531C114.785 586.531 114.492 586.238 114.492 585.652L114.492 583.973C114.492 583.387 114.785 583.094 115.371 583.094L129.785 583.094C130.176 583.094 130.566 583.107 130.957 583.133L130.957 583.094L115.449 574.148C114.811 573.784 114.492 573.224 114.492 572.469L114.492 570.105C114.492 569.52 114.785 569.227 115.371 569.227L134.121 569.227C134.707 569.227 135 569.52 135 570.105L135 571.785C135 572.371 134.707 572.664 134.121 572.664L119.707 572.664C119.316 572.664 118.926 572.651 118.535 572.625L118.535 572.664L134.043 581.609C134.681 581.974 135 582.534 135 583.289L135 585.652ZM124.746 564.793C121.686 564.793 119.16 564.038 117.168 562.527C115.163 561.004 114.16 558.68 114.16 555.555C114.16 553.445 114.538 551.837 115.293 550.73C116.035 549.611 116.797 548.803 117.578 548.309C118.008 548.035 118.353 548.094 118.613 548.484L119.414 549.715C119.687 550.105 119.512 550.496 118.887 550.887C118.288 551.264 117.773 551.798 117.344 552.488C116.914 553.165 116.699 554.187 116.699 555.555C116.699 557.339 117.357 558.719 118.672 559.695C119.987 560.672 122.012 561.16 124.746 561.16C127.48 561.16 129.505 560.672 130.82 559.695C132.135 558.719 132.793 557.339 132.793 555.555C132.793 554.109 132.52 553.003 131.973 552.234C131.413 551.466 130.807 550.906 130.156 550.555C129.544 550.216 129.368 549.832 129.629 549.402L130.41 548.094C130.645 547.703 130.996 547.645 131.465 547.918C132.025 548.243 132.812 548.986 133.828 550.145C134.831 551.29 135.332 553.094 135.332 555.555C135.332 558.68 134.336 561.004 132.344 562.527C130.339 564.038 127.806 564.793 124.746 564.793ZM117.129 544.91C117.129 545.496 116.901 545.789 116.445 545.789L115.176 545.789C114.72 545.789 114.492 545.496 114.492 544.91L114.492 529.168C114.492 528.582 114.72 528.289 115.176 528.289L116.445 528.289C116.901 528.289 117.129 528.582 117.129 529.168L117.129 535.32L134.121 535.32C134.707 535.32 135 535.613 135 536.199L135 537.879C135 538.465 134.707 538.758 134.121 538.758L117.129 538.758L117.129 544.91ZM142.812 524.012C142.812 524.598 142.52 524.891 141.934 524.891L115.371 524.891C114.785 524.891 114.492 524.598 114.492 524.012L114.492 522.371C114.492 521.902 114.785 521.648 115.371 521.609L116.934 521.492L116.934 521.453C116.074 520.737 115.397 519.93 114.902 519.031C114.408 518.133 114.16 516.935 114.16 515.437C114.16 512.833 115.228 510.854 117.363 509.5C119.486 508.146 121.947 507.469 124.746 507.469C127.546 507.469 130.013 508.146 132.148 509.5C134.271 510.854 135.332 512.833 135.332 515.437C135.332 516.935 135.085 518.133 134.59 519.031C134.095 519.93 133.418 520.737 132.559 521.453L132.559 521.492C132.949 521.466 133.346 521.453 133.75 521.453L141.934 521.453C142.52 521.453 142.812 521.746 142.812 522.332L142.812 524.012ZM126.992 521.453C128.945 521.453 130.404 520.991 131.367 520.066C132.318 519.129 132.793 517.957 132.793 516.551C132.793 514.572 132.051 513.172 130.566 512.352C129.082 511.518 127.142 511.102 124.746 511.102C122.35 511.102 120.41 511.518 118.926 512.352C117.441 513.172 116.699 514.572 116.699 516.551C116.699 517.957 117.181 519.129 118.145 520.066C119.095 520.991 120.547 521.453 122.5 521.453L126.992 521.453ZM129.531 504.129C127.214 504.129 125.514 503.048 124.434 500.887C123.353 498.712 122.721 495.47 122.539 491.16L121.211 491.16C119.987 491.16 118.932 491.44 118.047 492C117.148 492.547 116.699 493.641 116.699 495.281C116.699 496.323 116.803 497.156 117.012 497.781C117.207 498.406 117.474 498.979 117.812 499.5C118.138 500.008 118.561 500.496 119.082 500.965C119.473 501.316 119.492 501.648 119.141 501.961L117.969 502.977C117.643 503.263 117.253 503.165 116.797 502.684C116.146 501.993 115.658 501.323 115.332 500.672C115.007 500.021 114.733 499.214 114.512 498.25C114.277 497.273 114.16 496.284 114.16 495.281C114.16 492.56 114.863 490.62 116.27 489.461C117.663 488.302 119.577 487.723 122.012 487.723L134.121 487.723C134.707 487.723 135 488.016 135 488.602L135 490.359C135 490.867 134.707 491.121 134.121 491.121L133.164 491.121L133.164 491.16C133.971 492.189 134.538 493.198 134.863 494.187C135.176 495.164 135.332 496.258 135.332 497.469C135.332 499.604 134.824 501.251 133.809 502.41C132.78 503.556 131.354 504.129 129.531 504.129ZM129.609 500.574C130.417 500.574 131.068 500.405 131.562 500.066C132.044 499.728 132.357 499.259 132.5 498.66C132.63 498.061 132.695 497.436 132.695 496.785C132.695 495.783 132.598 494.832 132.402 493.934C132.207 493.035 131.693 492.111 130.859 491.16L125.098 491.16C125.293 493.79 125.534 495.665 125.82 496.785C126.094 497.905 126.576 498.816 127.266 499.52C127.943 500.223 128.724 500.574 129.609 500.574ZM117.129 483.426C117.129 484.012 116.901 484.305 116.445 484.305L115.176 484.305C114.72 484.305 114.492 484.012 114.492 483.426L114.492 467.684C114.492 467.098 114.72 466.805 115.176 466.805L116.445 466.805C116.901 466.805 117.129 467.098 117.129 467.684L117.129 473.836L134.121 473.836C134.707 473.836 135 474.129 135 474.715L135 476.395C135 476.98 134.707 477.273 134.121 477.273L117.129 477.273L117.129 483.426ZM124.746 465.809C121.686 465.809 119.16 465.001 117.168 463.387C115.163 461.759 114.16 459.383 114.16 456.258C114.16 453.133 115.163 450.763 117.168 449.148C119.16 447.521 121.686 446.707 124.746 446.707C127.806 446.707 130.339 447.521 132.344 449.148C134.336 450.763 135.332 453.133 135.332 456.258C135.332 459.383 134.336 461.759 132.344 463.387C130.339 465.001 127.806 465.809 124.746 465.809ZM124.746 462.176C127.48 462.176 129.505 461.635 130.82 460.555C132.135 459.474 132.793 458.042 132.793 456.258C132.793 454.474 132.135 453.042 130.82 451.961C129.505 450.88 127.48 450.34 124.746 450.34C122.012 450.34 119.987 450.88 118.672 451.961C117.357 453.042 116.699 454.474 116.699 456.258C116.699 458.042 117.357 459.474 118.672 460.555C119.987 461.635 122.012 462.176 124.746 462.176ZM142.812 441.395C142.812 441.98 142.52 442.273 141.934 442.273L115.371 442.273C114.785 442.273 114.492 441.98 114.492 441.395L114.492 439.754C114.492 439.285 114.785 439.031 115.371 438.992L116.934 438.875L116.934 438.836C116.074 438.12 115.397 437.312 114.902 436.414C114.408 435.516 114.16 434.318 114.16 432.82C114.16 430.216 115.228 428.237 117.363 426.883C119.486 425.529 121.947 424.852 124.746 424.852C127.546 424.852 130.013 425.529 132.148 426.883C134.271 428.237 135.332 430.216 135.332 432.82C135.332 434.318 135.085 435.516 134.59 436.414C134.095 437.312 133.418 438.12 132.559 438.836L132.559 438.875C132.949 438.849 133.346 438.836 133.75 438.836L141.934 438.836C142.52 438.836 142.812 439.129 142.812 439.715L142.812 441.395ZM126.992 438.836C128.945 438.836 130.404 438.374 131.367 437.449C132.318 436.512 132.793 435.34 132.793 433.934C132.793 431.954 132.051 430.555 130.566 429.734C129.082 428.901 127.142 428.484 124.746 428.484C122.35 428.484 120.41 428.901 118.926 429.734C117.441 430.555 116.699 431.954 116.699 433.934C116.699 435.34 117.181 436.512 118.145 437.449C119.095 438.374 120.547 438.836 122.5 438.836L126.992 438.836Z" fill="#090909"/>
<rect x="242.5" y="483.5" width="425" height="238" rx="10.5" fill="#FF9500" stroke="#FFCC00" stroke-width="9"/>
<path d="M314.297 616C313.646 616 313.32 615.642 313.32 614.926V589.066C313.32 588.35 313.646 587.992 314.297 587.992H316.094C316.745 587.992 317.07 588.35 317.07 589.066V600.121H317.891C319.375 600.121 320.56 599.75 321.445 599.008C322.344 598.253 323.177 597.315 323.945 596.195L329.023 588.754C329.375 588.246 329.831 587.992 330.391 587.992H332.676C333.509 587.992 333.626 588.422 333.027 589.281L327.031 597.797C326.328 598.786 325.54 599.646 324.668 600.375C323.809 601.091 323.21 601.514 322.871 601.645V601.664C323.6 601.82 324.355 602.172 325.137 602.719C325.918 603.253 326.875 604.385 328.008 606.117L333.633 614.711C334.193 615.57 334.076 616 333.281 616H330.801C330.189 616 329.733 615.746 329.434 615.238L325.117 608.031C324.271 606.625 323.249 605.479 322.051 604.594C320.866 603.695 319.577 603.246 318.184 603.246H317.07V614.926C317.07 615.642 316.745 616 316.094 616H314.297ZM336.465 605.746C336.465 602.686 337.272 600.16 338.887 598.168C340.514 596.163 342.891 595.16 346.016 595.16C349.141 595.16 351.51 596.163 353.125 598.168C354.753 600.16 355.566 602.686 355.566 605.746C355.566 608.806 354.753 611.339 353.125 613.344C351.51 615.336 349.141 616.332 346.016 616.332C342.891 616.332 340.514 615.336 338.887 613.344C337.272 611.339 336.465 608.806 336.465 605.746ZM340.098 605.746C340.098 608.48 340.638 610.505 341.719 611.82C342.799 613.135 344.232 613.793 346.016 613.793C347.799 613.793 349.232 613.135 350.312 611.82C351.393 610.505 351.934 608.48 351.934 605.746C351.934 603.012 351.393 600.987 350.312 599.672C349.232 598.357 347.799 597.699 346.016 597.699C344.232 597.699 342.799 598.357 341.719 599.672C340.638 600.987 340.098 603.012 340.098 605.746ZM360.879 616C360.293 616 360 615.707 360 615.121V596.371C360 595.785 360.293 595.492 360.879 595.492H362.559C363.145 595.492 363.438 595.785 363.438 596.371V604.008H372.891V596.371C372.891 595.785 373.184 595.492 373.77 595.492H375.449C376.035 595.492 376.328 595.785 376.328 596.371V615.121C376.328 615.707 376.035 616 375.449 616H373.77C373.184 616 372.891 615.707 372.891 615.121V606.586H363.438V615.121C363.438 615.707 363.145 616 362.559 616H360.879ZM380.762 605.746C380.762 602.686 381.517 600.16 383.027 598.168C384.551 596.163 386.875 595.16 390 595.16C392.109 595.16 393.717 595.538 394.824 596.293C395.944 597.035 396.751 597.797 397.246 598.578C397.52 599.008 397.461 599.353 397.07 599.613L395.84 600.414C395.449 600.688 395.059 600.512 394.668 599.887C394.29 599.288 393.757 598.773 393.066 598.344C392.389 597.914 391.367 597.699 390 597.699C388.216 597.699 386.836 598.357 385.859 599.672C384.883 600.987 384.395 603.012 384.395 605.746C384.395 608.48 384.883 610.505 385.859 611.82C386.836 613.135 388.216 613.793 390 613.793C391.445 613.793 392.552 613.52 393.32 612.973C394.089 612.413 394.648 611.807 395 611.156C395.339 610.544 395.723 610.368 396.152 610.629L397.461 611.41C397.852 611.645 397.91 611.996 397.637 612.465C397.311 613.025 396.569 613.812 395.41 614.828C394.264 615.831 392.461 616.332 390 616.332C386.875 616.332 384.551 615.336 383.027 613.344C381.517 611.339 380.762 608.806 380.762 605.746ZM400.801 605.746C400.801 602.686 401.608 600.16 403.223 598.168C404.85 596.163 407.227 595.16 410.352 595.16C413.477 595.16 415.846 596.163 417.461 598.168C419.089 600.16 419.902 602.686 419.902 605.746C419.902 608.806 419.089 611.339 417.461 613.344C415.846 615.336 413.477 616.332 410.352 616.332C407.227 616.332 404.85 615.336 403.223 613.344C401.608 611.339 400.801 608.806 400.801 605.746ZM404.434 605.746C404.434 608.48 404.974 610.505 406.055 611.82C407.135 613.135 408.568 613.793 410.352 613.793C412.135 613.793 413.568 613.135 414.648 611.82C415.729 610.505 416.27 608.48 416.27 605.746C416.27 603.012 415.729 600.987 414.648 599.672C413.568 598.357 412.135 597.699 410.352 597.699C408.568 597.699 407.135 598.357 406.055 599.672C404.974 600.987 404.434 603.012 404.434 605.746ZM421.094 616.156C420.807 616.039 420.697 615.844 420.762 615.57L421.113 613.949C421.165 613.702 421.335 613.611 421.621 613.676C421.921 613.754 422.181 613.793 422.402 613.793C423.574 613.793 424.505 612.901 425.195 611.117C425.898 609.32 426.25 605.987 426.25 601.117V596.371C426.25 595.785 426.66 595.492 427.48 595.492H438.516C439.102 595.492 439.395 595.785 439.395 596.371V615.121C439.395 615.707 439.102 616 438.516 616H436.836C436.25 616 435.957 615.707 435.957 615.121V598.07H429.258V602.113C429.258 606.931 428.73 610.505 427.676 612.836C426.634 615.167 425.02 616.332 422.832 616.332C421.947 616.332 421.367 616.273 421.094 616.156ZM445.723 616C445.137 616 444.844 615.707 444.844 615.121V596.371C444.844 595.785 445.137 595.492 445.723 595.492H447.402C447.988 595.492 448.281 595.785 448.281 596.371V603.93H452.617C455.612 603.93 457.669 604.483 458.789 605.59C459.909 606.684 460.469 608.142 460.469 609.965C460.469 611.788 459.909 613.253 458.789 614.359C457.669 615.453 455.612 616 452.617 616H445.723ZM448.281 613.441H451.719C453.542 613.441 454.85 613.22 455.645 612.777C456.439 612.335 456.836 611.397 456.836 609.965C456.836 608.533 456.439 607.595 455.645 607.152C454.85 606.697 453.542 606.469 451.719 606.469H448.281V613.441ZM465.605 616C465.02 616 464.727 615.707 464.727 615.121V596.371C464.727 595.785 465.02 595.492 465.605 595.492H467.285C467.871 595.492 468.164 595.785 468.164 596.371V604.008H477.617V596.371C477.617 595.785 477.91 595.492 478.496 595.492H480.176C480.762 595.492 481.055 595.785 481.055 596.371V615.121C481.055 615.707 480.762 616 480.176 616H478.496C477.91 616 477.617 615.707 477.617 615.121V606.586H468.164V615.121C468.164 615.707 467.871 616 467.285 616H465.605ZM487.48 616C486.895 616 486.602 615.707 486.602 615.121V596.371C486.602 595.785 486.895 595.492 487.48 595.492H489.16C489.746 595.492 490.039 595.785 490.039 596.371V603.93H494.375C497.37 603.93 499.427 604.483 500.547 605.59C501.667 606.684 502.227 608.142 502.227 609.965C502.227 611.788 501.667 613.253 500.547 614.359C499.427 615.453 497.37 616 494.375 616H487.48ZM490.039 613.441H493.477C495.299 613.441 496.608 613.22 497.402 612.777C498.197 612.335 498.594 611.397 498.594 609.965C498.594 608.533 498.197 607.595 497.402 607.152C496.608 606.697 495.299 606.469 493.477 606.469H490.039V613.441ZM506.465 616C505.879 616 505.586 615.707 505.586 615.121V596.371C505.586 595.785 505.879 595.492 506.465 595.492H508.145C508.73 595.492 509.023 595.785 509.023 596.371V615.121C509.023 615.707 508.73 616 508.145 616H506.465ZM515.449 616C514.863 616 514.57 615.707 514.57 615.121V596.371C514.57 595.785 514.863 595.492 515.449 595.492H517.129C517.715 595.492 518.008 595.785 518.008 596.371V610.785C518.008 611.176 517.995 611.566 517.969 611.957H518.008L526.953 596.449C527.318 595.811 527.878 595.492 528.633 595.492H530.996C531.582 595.492 531.875 595.785 531.875 596.371V615.121C531.875 615.707 531.582 616 530.996 616H529.316C528.73 616 528.438 615.707 528.438 615.121V600.707C528.438 600.316 528.451 599.926 528.477 599.535H528.438L519.492 615.043C519.128 615.681 518.568 616 517.812 616H515.449ZM516.328 588.559C516.289 587.973 516.582 587.68 517.207 587.68H518.691C519.212 587.68 519.505 587.973 519.57 588.559L519.648 589.223C519.753 590.095 520.13 590.642 520.781 590.863C521.432 591.085 522.246 591.195 523.223 591.195C524.199 591.195 525.013 591.085 525.664 590.863C526.315 590.642 526.693 590.095 526.797 589.223L526.875 588.559C526.94 587.973 527.233 587.68 527.754 587.68H529.238C529.863 587.68 530.156 587.973 530.117 588.559L530.039 589.75C529.948 591.052 529.193 592.022 527.773 592.66C526.367 593.298 524.85 593.617 523.223 593.617C521.595 593.617 520.072 593.298 518.652 592.66C517.246 592.022 516.497 591.052 516.406 589.75L516.328 588.559ZM549.98 613.773C549.668 613.331 549.648 612.973 549.922 612.699L550.996 611.645C551.361 611.28 551.777 611.371 552.246 611.918C552.324 612.009 552.793 612.348 553.652 612.934C554.512 613.507 555.592 613.793 556.895 613.793C559.056 613.793 560.443 613.435 561.055 612.719C561.667 611.99 561.973 611.13 561.973 610.141C561.973 608.865 561.582 607.953 560.801 607.406C560.02 606.846 558.906 606.566 557.461 606.566H555.039C554.453 606.566 554.16 606.339 554.16 605.883V604.711C554.16 604.255 554.453 604.027 555.039 604.027H556.816C558.405 604.027 559.538 603.754 560.215 603.207C560.905 602.647 561.25 601.84 561.25 600.785C561.25 599.626 560.84 598.826 560.02 598.383C559.212 597.927 558.158 597.699 556.855 597.699C556.23 597.699 555.514 597.771 554.707 597.914C553.9 598.044 553.197 598.422 552.598 599.047C552.038 599.633 551.595 599.763 551.27 599.438L550.234 598.402C549.857 598.025 549.941 597.602 550.488 597.133C551.191 596.534 552.031 596.059 553.008 595.707C553.984 595.342 555.417 595.16 557.305 595.16C559.896 595.16 561.771 595.727 562.93 596.859C564.102 597.979 564.688 599.203 564.688 600.531C564.688 601.911 564.427 602.927 563.906 603.578C563.398 604.229 562.76 604.73 561.992 605.082V605.141C563.021 605.44 563.88 606.065 564.57 607.016C565.26 607.953 565.605 608.943 565.605 609.984C565.605 612.25 564.896 613.878 563.477 614.867C562.057 615.844 559.954 616.332 557.168 616.332C554.98 616.332 553.262 615.948 552.012 615.18C550.775 614.411 550.098 613.943 549.98 613.773ZM568.809 610.531C568.809 608.214 569.889 606.514 572.051 605.434C574.225 604.353 577.467 603.721 581.777 603.539V602.211C581.777 600.987 581.497 599.932 580.938 599.047C580.391 598.148 579.297 597.699 577.656 597.699C576.615 597.699 575.781 597.803 575.156 598.012C574.531 598.207 573.958 598.474 573.438 598.812C572.93 599.138 572.441 599.561 571.973 600.082C571.621 600.473 571.289 600.492 570.977 600.141L569.961 598.969C569.674 598.643 569.772 598.253 570.254 597.797C570.944 597.146 571.615 596.658 572.266 596.332C572.917 596.007 573.724 595.733 574.688 595.512C575.664 595.277 576.654 595.16 577.656 595.16C580.378 595.16 582.318 595.863 583.477 597.27C584.635 598.663 585.215 600.577 585.215 603.012V615.121C585.215 615.707 584.922 616 584.336 616H582.578C582.07 616 581.816 615.707 581.816 615.121V614.164H581.777C580.749 614.971 579.74 615.538 578.75 615.863C577.773 616.176 576.68 616.332 575.469 616.332C573.333 616.332 571.686 615.824 570.527 614.809C569.382 613.78 568.809 612.354 568.809 610.531ZM572.363 610.609C572.363 611.417 572.533 612.068 572.871 612.562C573.21 613.044 573.678 613.357 574.277 613.5C574.876 613.63 575.501 613.695 576.152 613.695C577.155 613.695 578.105 613.598 579.004 613.402C579.902 613.207 580.827 612.693 581.777 611.859V606.098C579.147 606.293 577.272 606.534 576.152 606.82C575.033 607.094 574.121 607.576 573.418 608.266C572.715 608.943 572.363 609.724 572.363 610.609ZM589.219 616.156C588.932 616.039 588.822 615.844 588.887 615.57L589.238 613.949C589.29 613.702 589.46 613.611 589.746 613.676C590.046 613.754 590.306 613.793 590.527 613.793C591.699 613.793 592.63 612.901 593.32 611.117C594.023 609.32 594.375 605.987 594.375 601.117V596.371C594.375 595.785 594.785 595.492 595.605 595.492H606.641C607.227 595.492 607.52 595.785 607.52 596.371V615.121C607.52 615.707 607.227 616 606.641 616H604.961C604.375 616 604.082 615.707 604.082 615.121V598.07H597.383V602.113C597.383 606.931 596.855 610.505 595.801 612.836C594.759 615.167 593.145 616.332 590.957 616.332C590.072 616.332 589.492 616.273 589.219 616.156Z" fill="white"/>
<rect x="49" y="47" width="639" height="232" rx="15" fill="#D9D9D9"/>
<path d="M294.156 171C293.375 171 292.984 170.57 292.984 169.711V138.68C292.984 137.82 293.375 137.391 294.156 137.391H317.031C317.812 137.391 318.203 137.82 318.203 138.68V169.711C318.203 170.57 317.812 171 317.031 171H314.875C314.094 171 313.703 170.57 313.703 169.711V141.234H297.484V169.711C297.484 170.57 297.094 171 296.312 171H294.156ZM327.344 171C326.562 171 326.172 170.57 326.172 169.711V138.68C326.172 137.82 326.562 137.391 327.344 137.391H329.5C330.281 137.391 330.672 137.82 330.672 138.68V151.945H331.656C333.438 151.945 334.859 151.5 335.922 150.609C337 149.703 338 148.578 338.922 147.234L345.016 138.305C345.438 137.695 345.984 137.391 346.656 137.391H349.398C350.398 137.391 350.539 137.906 349.82 138.938L342.625 149.156C341.781 150.344 340.836 151.375 339.789 152.25C338.758 153.109 338.039 153.617 337.633 153.773V153.797C338.508 153.984 339.414 154.406 340.352 155.062C341.289 155.703 342.438 157.062 343.797 159.141L350.547 169.453C351.219 170.484 351.078 171 350.125 171H347.148C346.414 171 345.867 170.695 345.508 170.086L340.328 161.438C339.312 159.75 338.086 158.375 336.648 157.312C335.227 156.234 333.68 155.695 332.008 155.695H330.672V169.711C330.672 170.57 330.281 171 329.5 171H327.344ZM370.352 168.328C369.977 167.797 369.953 167.367 370.281 167.039L371.57 165.773C372.008 165.336 372.508 165.445 373.07 166.102C373.164 166.211 373.727 166.617 374.758 167.32C375.789 168.008 377.086 168.352 378.648 168.352C381.242 168.352 382.906 167.922 383.641 167.062C384.375 166.188 384.742 165.156 384.742 163.969C384.742 162.438 384.273 161.344 383.336 160.688C382.398 160.016 381.062 159.68 379.328 159.68H376.422C375.719 159.68 375.367 159.406 375.367 158.859V157.453C375.367 156.906 375.719 156.633 376.422 156.633H378.555C380.461 156.633 381.82 156.305 382.633 155.648C383.461 154.977 383.875 154.008 383.875 152.742C383.875 151.352 383.383 150.391 382.398 149.859C381.43 149.312 380.164 149.039 378.602 149.039C377.852 149.039 376.992 149.125 376.023 149.297C375.055 149.453 374.211 149.906 373.492 150.656C372.82 151.359 372.289 151.516 371.898 151.125L370.656 149.883C370.203 149.43 370.305 148.922 370.961 148.359C371.805 147.641 372.812 147.07 373.984 146.648C375.156 146.211 376.875 145.992 379.141 145.992C382.25 145.992 384.5 146.672 385.891 148.031C387.297 149.375 388 150.844 388 152.438C388 154.094 387.688 155.312 387.062 156.094C386.453 156.875 385.688 157.477 384.766 157.898V157.969C386 158.328 387.031 159.078 387.859 160.219C388.688 161.344 389.102 162.531 389.102 163.781C389.102 166.5 388.25 168.453 386.547 169.641C384.844 170.812 382.32 171.398 378.977 171.398C376.352 171.398 374.289 170.938 372.789 170.016C371.305 169.094 370.492 168.531 370.352 168.328ZM392.945 164.438C392.945 161.656 394.242 159.617 396.836 158.32C399.445 157.023 403.336 156.266 408.508 156.047V154.453C408.508 152.984 408.172 151.719 407.5 150.656C406.844 149.578 405.531 149.039 403.562 149.039C402.312 149.039 401.312 149.164 400.562 149.414C399.812 149.648 399.125 149.969 398.5 150.375C397.891 150.766 397.305 151.273 396.742 151.898C396.32 152.367 395.922 152.391 395.547 151.969L394.328 150.562C393.984 150.172 394.102 149.703 394.68 149.156C395.508 148.375 396.312 147.789 397.094 147.398C397.875 147.008 398.844 146.68 400 146.414C401.172 146.133 402.359 145.992 403.562 145.992C406.828 145.992 409.156 146.836 410.547 148.523C411.938 150.195 412.633 152.492 412.633 155.414V169.945C412.633 170.648 412.281 171 411.578 171H409.469C408.859 171 408.555 170.648 408.555 169.945V168.797H408.508C407.273 169.766 406.062 170.445 404.875 170.836C403.703 171.211 402.391 171.398 400.938 171.398C398.375 171.398 396.398 170.789 395.008 169.57C393.633 168.336 392.945 166.625 392.945 164.438ZM397.211 164.531C397.211 165.5 397.414 166.281 397.82 166.875C398.227 167.453 398.789 167.828 399.508 168C400.227 168.156 400.977 168.234 401.758 168.234C402.961 168.234 404.102 168.117 405.18 167.883C406.258 167.648 407.367 167.031 408.508 166.031V159.117C405.352 159.352 403.102 159.641 401.758 159.984C400.414 160.312 399.32 160.891 398.477 161.719C397.633 162.531 397.211 163.469 397.211 164.531ZM417.438 171.188C417.094 171.047 416.961 170.812 417.039 170.484L417.461 168.539C417.523 168.242 417.727 168.133 418.07 168.211C418.43 168.305 418.742 168.352 419.008 168.352C420.414 168.352 421.531 167.281 422.359 165.141C423.203 162.984 423.625 158.984 423.625 153.141V147.445C423.625 146.742 424.117 146.391 425.102 146.391H438.344C439.047 146.391 439.398 146.742 439.398 147.445V169.945C439.398 170.648 439.047 171 438.344 171H436.328C435.625 171 435.273 170.648 435.273 169.945V149.484H427.234V154.336C427.234 160.117 426.602 164.406 425.336 167.203C424.086 170 422.148 171.398 419.523 171.398C418.461 171.398 417.766 171.328 417.438 171.188Z" fill="#090909"/>
<rect x="784" y="37" width="330" height="689" rx="103" fill="#D9D9D9"/>
<path d="M994.125 193.328C996.187 192.547 997.219 192.969 997.219 194.594L997.219 199.375C997.219 201.062 996.453 202.187 994.922 202.75L952.969 217.984C951.125 218.641 948.641 219.453 945.516 220.422C942.422 221.422 939.953 222.094 938.109 222.437L938.109 222.625C939.953 222.969 942.422 223.625 945.516 224.594C948.641 225.594 951.125 226.422 952.969 227.078L994.922 242.312C996.453 242.875 997.219 244 997.219 245.687L997.219 250.469C997.219 252.094 996.187 252.516 994.125 251.734L932.859 228.906C930.953 228.187 930 227.156 930 225.812L930 219.25C930 217.906 930.953 216.875 932.859 216.156L994.125 193.328ZM930 263.031C930 261.469 930.859 260.687 932.578 260.687L994.641 260.687C996.359 260.687 997.219 261.469 997.219 263.031L997.219 285.672C997.219 294.703 995.531 301.234 992.156 305.266C988.781 309.328 984.328 311.359 978.797 311.359C973.922 311.359 969.828 309.719 966.516 306.437C963.203 303.187 961.297 298.547 960.797 292.516L960.703 292.516C958.328 295.703 956.516 297.812 955.266 298.844C954.047 299.875 952.391 301.031 950.297 302.312L933.094 312.906C931.031 314.187 930 313.906 930 312.062L930 306.719C930 305.25 930.609 304.156 931.828 303.437L948.562 293.687C950.969 292.281 953.328 290.266 955.641 287.641C957.953 285.016 959.109 281.75 959.109 277.844L959.109 269.687L932.578 269.687C930.859 269.687 930 268.906 930 267.344L930 263.031ZM966.797 269.687L966.797 283.234C966.797 289.328 967.594 294.016 969.187 297.297C970.812 300.578 974.203 302.219 979.359 302.219C983.297 302.219 985.969 300.719 987.375 297.719C988.812 294.719 989.531 290.641 989.531 285.484L989.531 269.687L966.797 269.687ZM930 354.625C930 353 931.031 352.578 933.094 353.359L994.359 376.703C996.266 377.422 997.219 378.453 997.219 379.797L997.219 386.359C997.219 387.703 996.266 388.734 994.359 389.453L933.094 412.797C931.031 413.578 930 413.156 930 411.531L930 406.75C930 405.094 930.766 403.969 932.297 403.375L947.812 397.516L947.812 368.641L932.297 362.781C930.766 362.187 930 361.062 930 359.406L930 354.625ZM955.5 371.594L955.5 394.562L974.25 387.391C976 386.734 977.937 386.078 980.062 385.422C982.187 384.797 985.203 384.047 989.109 383.172L989.109 382.984C985.203 382.109 982.187 381.344 980.062 380.687C977.937 380.062 976 379.422 974.25 378.766L955.5 371.594ZM911.25 422.547C911.25 421.141 911.953 420.437 913.359 420.437L977.109 420.437C978.516 420.437 979.219 421.141 979.219 422.547L979.219 426.484C979.219 427.609 978.516 428.219 977.109 428.312L973.359 428.594L973.359 428.687C975.422 430.406 977.047 432.344 978.234 434.5C979.422 436.656 980.016 439.531 980.016 443.125C980.016 449.375 977.453 454.125 972.328 457.375C967.234 460.625 961.328 462.25 954.609 462.25C947.891 462.25 941.969 460.625 936.844 457.375C931.75 454.125 929.203 449.375 929.203 443.125C929.203 439.531 929.797 436.656 930.984 434.5C932.172 432.344 933.797 430.406 935.859 428.687L935.859 428.594C934.922 428.656 933.969 428.687 933 428.687L913.359 428.687C911.953 428.687 911.25 427.984 911.25 426.578L911.25 422.547ZM949.219 428.687C944.531 428.687 941.031 429.797 938.719 432.016C936.437 434.266 935.297 437.078 935.297 440.453C935.297 445.203 937.078 448.562 940.641 450.531C944.203 452.531 948.859 453.531 954.609 453.531C960.359 453.531 965.016 452.531 968.578 450.531C972.141 448.562 973.922 445.203 973.922 440.453C973.922 437.078 972.766 434.266 970.453 432.016C968.172 429.797 964.687 428.687 960 428.687L949.219 428.687ZM954.609 470.266C962.359 470.266 968.531 472.203 973.125 476.078C977.719 479.953 980.016 485.5 980.016 492.719C980.016 498.719 977.906 503.687 973.687 507.625C969.5 511.594 962.797 513.578 953.578 513.578C952.172 513.578 951.469 512.937 951.469 511.656L951.469 478.984C945.437 479.516 941.234 481.141 938.859 483.859C936.516 486.578 935.344 489.656 935.344 493.094C935.344 496.719 935.953 499.5 937.172 501.437C938.391 503.375 939.594 504.797 940.781 505.703C942.094 506.703 942.344 507.672 941.531 508.609L939.141 511.375C938.516 512.094 937.656 512.094 936.562 511.375C935.656 510.781 934.203 509.078 932.203 506.266C930.203 503.484 929.203 499.094 929.203 493.094C929.203 485.281 931.5 479.516 936.094 475.797C940.687 472.109 946.859 470.266 954.609 470.266ZM957.562 478.797L957.562 505.281C961.937 505.156 965.766 504.031 969.047 501.906C972.359 499.781 974.016 496.656 974.016 492.531C974.016 488.906 972.797 485.828 970.359 483.297C967.953 480.766 963.687 479.266 957.562 478.797ZM930 526.516C930 525.109 930.703 524.406 932.109 524.406L977.109 524.406C978.516 524.406 979.219 525.109 979.219 526.516L979.219 530.547C979.219 531.953 978.516 532.656 977.109 532.656L958.781 532.656L958.781 555.344L977.109 555.344C978.516 555.344 979.219 556.047 979.219 557.453L979.219 561.484C979.219 562.891 978.516 563.594 977.109 563.594L932.109 563.594C930.703 563.594 930 562.891 930 561.484L930 557.453C930 556.047 930.703 555.344 932.109 555.344L952.594 555.344L952.594 532.656L932.109 532.656C930.703 532.656 930 531.953 930 530.547L930 526.516ZM943.125 574.234C948.687 574.234 952.766 576.828 955.359 582.016C957.953 587.234 959.469 595.016 959.906 605.359L963.094 605.359C966.031 605.359 968.562 604.687 970.687 603.344C972.844 602.031 973.922 599.406 973.922 595.469C973.922 592.969 973.672 590.969 973.172 589.469C972.703 587.969 972.062 586.594 971.25 585.344C970.469 584.125 969.453 582.953 968.203 581.828C967.266 580.984 967.219 580.187 968.062 579.437L970.875 577C971.656 576.312 972.594 576.547 973.687 577.703C975.25 579.359 976.422 580.969 977.203 582.531C977.984 584.094 978.641 586.031 979.172 588.344C979.734 590.687 980.016 593.062 980.016 595.469C980.016 602 978.328 606.656 974.953 609.437C971.609 612.219 967.016 613.609 961.172 613.609L932.109 613.609C930.703 613.609 930 612.906 930 611.5L930 607.281C930 606.062 930.703 605.453 932.109 605.453L934.406 605.453L934.406 605.359C932.469 602.891 931.109 600.469 930.328 598.094C929.578 595.75 929.203 593.125 929.203 590.219C929.203 585.094 930.422 581.141 932.859 578.359C935.328 575.609 938.75 574.234 943.125 574.234ZM942.937 582.766C941 582.766 939.437 583.172 938.25 583.984C937.094 584.797 936.344 585.922 936 587.359C935.687 588.797 935.531 590.297 935.531 591.859C935.531 594.266 935.766 596.547 936.234 598.703C936.703 600.859 937.937 603.078 939.937 605.359L953.766 605.359C953.297 599.047 952.719 594.547 952.031 591.859C951.375 589.172 950.219 586.984 948.562 585.297C946.937 583.609 945.062 582.766 942.937 582.766Z" fill="#090909"/>
</svg>
