<svg width="800" height="800" viewBox="0 0 800 800" fill="none" xmlns="http://www.w3.org/2000/svg">
<path d="M683.838 116.162C682.678 115.001 681.3 114.08 679.783 113.452C678.267 112.823 676.641 112.5 675 112.5H674.96L475.589 113.129C473.754 113.134 471.943 113.544 470.284 114.328C468.626 115.112 467.16 116.252 465.991 117.667L237.247 394.568L201.517 358.838C194.478 351.817 184.942 347.874 175 347.874C165.058 347.874 155.522 351.817 148.483 358.838L108.841 398.483C105.358 401.965 102.595 406.099 100.71 410.649C98.8249 415.199 97.8547 420.075 97.8547 425C97.8547 429.925 98.8249 434.801 100.71 439.351C102.595 443.901 105.358 448.035 108.841 451.517L174.112 516.789C176.453 519.135 177.767 522.314 177.767 525.628C177.767 528.942 176.453 532.121 174.112 534.467L80.5451 628.033C73.523 635.072 69.5793 644.608 69.5793 654.55C69.5793 664.492 73.523 674.029 80.5451 681.067L118.936 719.455C122.418 722.937 126.552 725.699 131.101 727.584C135.651 729.468 140.527 730.438 145.451 730.438C150.376 730.438 155.252 729.468 159.801 727.584C164.351 725.699 168.485 722.937 171.967 719.455L265.533 625.888C266.694 624.727 268.072 623.806 269.589 623.178C271.106 622.549 272.731 622.226 274.373 622.226C276.015 622.226 277.64 622.549 279.157 623.178C280.674 623.806 282.052 624.727 283.212 625.888L348.483 691.162C355.522 698.183 365.058 702.126 375 702.126C384.942 702.126 394.478 698.183 401.517 691.162L441.159 651.517C444.642 648.035 447.405 643.901 449.29 639.351C451.175 634.801 452.145 629.925 452.145 625C452.145 620.075 451.175 615.199 449.29 610.649C447.405 606.099 444.642 601.965 441.159 598.483L405.431 562.755L682.333 334.009C683.748 332.84 684.887 331.374 685.672 329.715C686.456 328.057 686.866 326.246 686.871 324.411L687.5 125.04C687.505 123.392 687.185 121.759 686.556 120.235C685.928 118.711 685.004 117.327 683.838 116.162ZM427.145 625C427.15 626.642 426.828 628.269 426.2 629.786C425.571 631.303 424.648 632.68 423.483 633.838L383.841 673.483C381.494 675.824 378.315 677.139 375 677.139C371.685 677.139 368.506 675.824 366.159 673.483L300.888 608.211C297.406 604.728 293.273 601.966 288.723 600.081C284.174 598.196 279.297 597.226 274.373 597.226C269.448 597.226 264.572 598.196 260.023 600.081C255.473 601.966 251.339 604.728 247.858 608.211L154.291 701.776C153.13 702.937 151.752 703.858 150.235 704.486C148.719 705.115 147.093 705.438 145.451 705.438C143.81 705.438 142.184 705.115 140.667 704.486C139.151 703.858 137.773 702.937 136.612 701.776L98.2209 663.388C95.8802 661.042 94.5656 657.863 94.5656 654.549C94.5656 651.235 95.8802 648.057 98.2209 645.711L191.788 552.145C198.81 545.107 202.753 535.571 202.753 525.629C202.753 515.686 198.81 506.15 191.788 499.112L126.517 433.838C125.356 432.677 124.435 431.3 123.806 429.783C123.178 428.267 122.855 426.641 122.855 425C122.855 423.359 123.178 421.733 123.806 420.217C124.435 418.7 125.356 417.323 126.517 416.162L166.159 376.517C168.506 374.176 171.686 372.862 175 372.862C178.315 372.862 181.494 374.176 183.841 376.517L423.483 616.162C424.648 617.32 425.571 618.697 426.2 620.214C426.828 621.731 427.15 623.358 427.145 625ZM661.89 318.469L387.673 544.997L330.177 487.5L508.838 308.838C510.001 307.678 510.925 306.3 511.555 304.783C512.185 303.266 512.511 301.639 512.512 299.996C512.513 298.353 512.19 296.726 511.562 295.208C510.934 293.69 510.013 292.311 508.851 291.149C507.689 289.987 506.31 289.066 504.792 288.438C503.274 287.81 501.647 287.487 500.004 287.488C498.361 287.49 496.734 287.815 495.217 288.445C493.7 289.075 492.322 289.999 491.162 291.162L312.5 469.823L255.005 412.326L481.531 138.11L662.46 137.54L661.89 318.469Z" fill="white"/>
</svg>
