<svg width="700" height="700" viewBox="0 0 700 700" fill="none" xmlns="http://www.w3.org/2000/svg">
<g clip-path="url(#clip0_27_19)">
<path d="M63.3333 63.3333L51.4917 51.6033L51.632 51.465L63.3333 63.3333ZM63.3333 636.667L51.6033 648.507L51.465 648.367L63.3333 636.667ZM636.665 636.667L648.509 648.397L648.369 648.537L636.665 636.667ZM636.665 63.3333L648.395 51.4917L648.535 51.632L636.665 63.3333ZM129.111 219.556L112.448 219.897C112.356 215.419 114.071 211.092 117.206 207.892C120.341 204.692 124.631 202.889 129.111 202.889V219.556ZM380.222 496.89H396.889C396.889 506.093 389.425 513.557 380.222 513.557V496.89ZM380.222 397.777H363.555C363.555 393.07 365.545 388.583 369.035 385.423C372.525 382.263 377.189 380.727 381.875 381.193L380.222 397.777ZM495.112 496.89V513.557C487.865 513.557 481.452 508.877 479.242 501.977L495.112 496.89ZM573.999 496.89L590.089 492.54C591.442 497.547 590.389 502.9 587.235 507.02C584.079 511.14 579.189 513.557 573.999 513.557V496.89ZM459.999 357.777L452.572 372.7C447.142 369.993 443.605 364.55 443.349 358.487C443.089 352.423 446.149 346.7 451.332 343.543L459.999 357.777ZM557.332 219.333V202.667C562.339 202.667 567.079 204.917 570.245 208.795C573.412 212.673 574.665 217.769 573.662 222.673L557.332 219.333ZM485.779 219.333L469.739 214.806C471.765 207.625 478.315 202.667 485.779 202.667V219.333ZM380.222 329.11L381.989 345.683C377.289 346.187 372.595 344.667 369.079 341.507C365.562 338.343 363.555 333.84 363.555 329.11H380.222ZM380.222 219.556V202.889C389.425 202.889 396.889 210.351 396.889 219.556H380.222ZM308.445 219.556H291.779C291.779 210.351 299.239 202.889 308.445 202.889V219.556ZM308.445 411.557H325.112C325.112 416.687 322.745 421.533 318.702 424.693C314.655 427.85 309.382 428.97 304.402 427.723L308.445 411.557ZM205.555 219.556V202.889C214.635 202.889 222.044 210.157 222.219 219.235L205.555 219.556ZM4.63097e-06 336.667C4.63097e-06 261.691 -0.034996 203.818 5.98067 158.872C12.0603 113.447 24.589 78.7623 51.4917 51.6033L75.174 75.0623C55.4103 95.0143 44.6063 121.553 39.0193 163.294C33.3683 205.515 33.3333 260.753 33.3333 336.667H4.63097e-06ZM4.63097e-06 363.333V336.667H33.3333V363.333H4.63097e-06ZM51.465 648.367C24.5883 621.107 12.0607 586.39 5.98067 540.96C-0.034996 496.017 4.63097e-06 438.2 4.63097e-06 363.333H33.3333C33.3333 439.133 33.3683 494.317 39.0193 536.54C44.6057 578.277 55.4117 604.893 75.2017 624.967L51.465 648.367ZM336.665 700C261.691 700 203.818 700.037 158.872 694.02C113.447 687.94 78.7623 675.41 51.6033 648.507L75.0623 624.827C95.0143 644.59 121.553 655.393 163.294 660.98C205.515 666.63 260.753 666.667 336.665 666.667V700ZM363.332 700H336.665V666.667H363.332V700ZM648.369 648.537C621.109 675.413 586.389 687.94 540.962 694.02C496.015 700.037 438.199 700 363.332 700V666.667C439.135 666.667 494.319 666.63 536.539 660.98C578.279 655.393 604.892 644.587 624.965 624.797L648.369 648.537ZM699.999 363.333C699.999 438.31 700.035 496.183 694.019 541.127C687.939 586.553 675.412 621.237 648.509 648.397L624.825 624.937C644.589 604.987 655.395 578.447 660.982 536.707C666.632 494.483 666.665 439.247 666.665 363.333H699.999ZM699.999 336.667V363.333H666.665V336.667H699.999ZM648.535 51.632C675.412 78.8927 687.939 113.611 694.019 159.039C700.035 203.985 699.999 261.801 699.999 336.667H666.665C666.665 260.865 666.632 205.682 660.982 163.461C655.395 121.722 644.589 95.1073 624.799 75.0347L648.535 51.632ZM363.332 4.63097e-06C438.309 4.63097e-06 496.182 -0.034996 541.129 5.98067C586.552 12.0603 621.235 24.5887 648.395 51.4917L624.939 75.174C604.985 55.4103 578.449 44.6063 536.705 39.0193C494.485 33.3683 439.245 33.3333 363.332 33.3333V4.63097e-06ZM336.665 4.63097e-06H363.332V33.3333H336.665V4.63097e-06ZM51.632 51.465C78.8927 24.5883 113.611 12.061 159.039 5.98067C203.985 -0.034996 261.801 4.63097e-06 336.665 4.63097e-06V33.3333C260.865 33.3333 205.682 33.3683 163.461 39.0193C121.722 44.6057 95.1073 55.4117 75.0347 75.2017L51.632 51.465ZM371.332 513.557C291.259 513.557 226.684 485.993 181.934 434.107C137.516 382.607 114.277 309.063 112.448 219.897L145.774 219.214C147.501 303.38 169.372 368.503 207.176 412.337C244.649 455.783 299.409 480.223 371.332 480.223V513.557ZM371.555 513.557H371.332V480.223H371.555V513.557ZM380.222 513.557H371.555V480.223H380.222V513.557ZM396.889 397.777V496.89H363.555V397.777H396.889ZM479.242 501.977C463.975 454.373 426.519 419.137 378.569 414.363L381.875 381.193C445.479 387.53 492.469 434.07 510.982 491.8L479.242 501.977ZM573.999 513.557H495.112V480.223H573.999V513.557ZM544.805 404.547C565.949 430.347 581.382 460.337 590.089 492.54L557.912 501.24C550.435 473.587 537.182 447.83 519.022 425.677L544.805 404.547ZM467.425 342.857C497.289 357.72 523.662 378.747 544.805 404.547L519.022 425.677C500.865 403.52 478.219 385.463 452.572 372.7L467.425 342.857ZM536.732 308.287C518.665 333.983 495.495 355.677 468.669 372.013L451.332 343.543C474.245 329.59 494.032 311.06 509.462 289.117L536.732 308.287ZM573.662 222.673C567.369 253.446 554.795 282.591 536.732 308.287L509.462 289.117C524.892 267.169 535.629 242.277 541.005 215.994L573.662 222.673ZM485.779 202.667H557.332V236H485.779V202.667ZM378.455 312.54C395.005 310.773 414.089 299.987 431.499 281.66C448.689 263.564 462.725 239.646 469.739 214.806L501.819 223.861C493.272 254.131 476.422 282.769 455.669 304.617C435.132 326.233 409.219 342.78 381.989 345.683L378.455 312.54ZM396.889 219.556V329.11H363.555V219.556H396.889ZM308.445 202.889H380.222V236.222H308.445V202.889ZM291.779 411.557V219.556H325.112V411.557H291.779ZM222.219 219.235C224.575 341.753 277.847 386.727 312.485 395.387L304.402 427.723C250.153 414.163 191.425 351.58 188.892 219.876L222.219 219.235ZM129.111 202.889H205.555V236.222H129.111V202.889Z" fill="white"/>
</g>
<defs>
<clipPath id="clip0_27_19">
<rect width="700" height="700" fill="white"/>
</clipPath>
</defs>
</svg>
