<svg width="632" height="630" viewBox="0 0 632 630" fill="none" xmlns="http://www.w3.org/2000/svg">
<path d="M317.002 2.5C262.292 2.51418 208.544 16.8875 161.129 44.1834C113.715 71.4793 74.2955 110.742 46.8103 158.047C19.3251 205.351 4.73713 259.041 4.50431 313.751C4.27149 368.46 18.402 422.273 45.4836 469.81L17.3448 568.299C15.508 574.729 15.424 581.534 17.1018 588.007C18.7795 594.48 22.1578 600.388 26.8866 605.116C31.6154 609.845 37.5227 613.222 43.9963 614.9C50.4699 616.577 57.2742 616.493 63.7042 614.655L162.194 586.518C203.775 610.224 250.246 624.063 298.022 626.967C345.798 629.87 393.602 621.761 437.748 603.265C481.894 584.769 521.202 556.38 552.64 520.287C584.077 484.195 606.805 441.363 619.069 395.097C631.333 348.83 632.806 300.365 623.374 253.44C613.942 206.514 593.858 162.381 564.671 124.446C535.483 86.511 497.972 55.787 455.031 34.6438C412.09 13.5006 364.866 2.50326 317.002 2.5ZM317.002 602.5C265.366 602.535 214.678 588.644 170.275 562.29C168.811 561.418 167.184 560.856 165.495 560.636C163.805 560.417 162.089 560.546 160.451 561.014L56.8346 590.62C54.6912 591.232 52.423 591.26 50.2652 590.7C48.1073 590.141 46.1383 589.015 44.5622 587.438C42.9862 585.862 41.8603 583.893 41.3014 581.735C40.7425 579.577 40.7708 577.309 41.3835 575.165L70.9856 471.552C71.4534 469.914 71.5815 468.198 71.3621 466.509C71.1428 464.819 70.5806 463.193 69.71 461.729C37.3275 407.172 23.8979 343.437 31.5131 280.453C39.1283 217.469 67.3608 158.771 111.813 113.504C156.264 68.2377 214.439 38.9437 277.275 30.1856C340.111 21.4275 404.079 33.6972 459.214 65.0834C514.35 96.4695 557.557 145.21 582.105 203.711C606.653 262.213 611.164 327.191 594.934 388.523C578.704 449.855 542.645 504.097 492.375 542.8C442.104 581.503 380.445 602.493 317.002 602.5ZM474.849 372.947L410.913 336.411C405.129 333.11 398.57 331.407 391.91 331.478C385.249 331.548 378.728 333.39 373.015 336.814L329.869 362.702C303.75 349.469 282.532 328.25 269.299 302.131L295.186 258.985C298.609 253.272 300.451 246.751 300.522 240.091C300.593 233.431 298.89 226.873 295.589 221.088L259.055 157.151C256.072 151.946 251.769 147.619 246.58 144.608C241.391 141.597 235.499 140.007 229.5 140C203.045 140.007 177.669 150.493 158.928 169.165C140.186 187.837 129.605 213.173 129.5 239.628C129.451 274.131 136.205 308.305 149.375 340.195C162.545 372.086 181.873 401.067 206.253 425.482C230.632 449.897 259.586 469.266 291.458 482.481C323.33 495.697 357.494 502.499 391.997 502.5H392.372C418.827 502.395 444.163 491.813 462.835 473.072C481.506 454.33 491.993 428.955 492 402.5C491.993 396.501 490.404 390.609 487.393 385.421C484.381 380.232 480.055 375.929 474.849 372.947ZM392.337 477.5H391.998C360.781 477.5 329.87 471.346 301.034 459.389C272.197 447.433 246.001 429.908 223.943 407.819C201.884 385.73 184.397 359.508 172.482 330.655C160.566 301.801 154.456 270.881 154.5 239.664C154.586 219.831 162.526 200.839 176.583 186.845C190.639 172.852 209.666 164.997 229.5 165C231.093 165.002 232.657 165.424 234.036 166.223C235.414 167.023 236.556 168.171 237.349 169.553L273.883 233.494C274.983 235.422 275.551 237.608 275.527 239.828C275.503 242.047 274.89 244.221 273.749 246.125L244.408 295.026C243.37 296.755 242.766 298.709 242.648 300.721C242.529 302.734 242.899 304.745 243.726 306.583C260.04 342.895 289.107 371.961 325.418 388.276C327.257 389.103 329.269 389.473 331.281 389.354C333.294 389.235 335.248 388.631 336.977 387.592L385.875 358.253C387.78 357.111 389.953 356.497 392.174 356.473C394.394 356.449 396.58 357.016 398.509 358.115L462.448 394.654C463.83 395.446 464.978 396.588 465.778 397.966C466.577 399.343 466.998 400.907 467 402.5C467.002 422.334 459.148 441.361 445.155 455.417C431.162 469.473 412.171 477.413 392.337 477.5Z" fill="white" stroke="white" stroke-width="3.125"/>
</svg>
