<svg width="692" height="502" viewBox="0 0 692 502" fill="none" xmlns="http://www.w3.org/2000/svg">
<path fill-rule="evenodd" clip-rule="evenodd" d="M526.376 476.09C600.117 478.774 662.12 421.28 665 347.546V156.634C662.12 82.9021 600.117 25.4058 526.376 28.0902H163.624C89.8842 25.4058 27.8794 82.9021 25 156.634V347.546C27.8794 421.28 89.8842 478.774 163.624 476.09H526.376Z" stroke="white" stroke-width="30" stroke-linecap="round" stroke-linejoin="round"/>
<path fill-rule="evenodd" clip-rule="evenodd" d="M329.256 161.691L430.408 230.426C436.962 234.253 440.99 241.27 440.99 248.858C440.99 256.448 436.962 263.466 430.408 267.29L329.256 342.49C310.056 355.514 281 344.41 281 324.058V180.059C281 159.803 310.088 148.667 329.256 161.691Z" stroke="white" stroke-width="30" stroke-linecap="round" stroke-linejoin="round"/>
</svg>
