<svg width="557" height="187" viewBox="0 0 557 187" fill="none" xmlns="http://www.w3.org/2000/svg">
<g clip-path="url(#clip0_7_15)">
<path d="M236.65 73.85H181.45V122H173.5V17H246.4L253.75 34.55V49.25L236.65 73.85ZM245.8 36.05L241.15 24.95H181.45V65.75H232.3L245.8 46.7V36.05ZM282.55 122L267.25 103.25V17H275.35V100.4L286.45 113.9H298V122H282.55ZM371.241 121.85V115.7L362.841 122H322.191L307.791 110V62.15L322.191 50.45H362.991L371.241 58.85V50.45H379.041V121.85H371.241ZM371.241 70.1L360.291 58.25H325.041L315.891 65.9V106.4L325.041 113.9H360.741L371.241 105.8V70.1ZM451.405 122.3H410.155L394.105 110.6V62L410.155 50.3H451.405L465.805 62.15V74.45H457.705V65.9L448.705 58.4H412.555L402.205 66.2V106.4L412.555 114.2H448.705L457.705 106.55V98.15H465.805V110.3L451.405 122.3ZM487.424 88.1V106.1L497.774 113.9H533.624L543.074 105.95L548.474 112.25L536.324 122H495.224L479.324 110.3V62L495.074 50.45H536.324L550.724 62.15V88.1H487.424ZM542.624 65.9L533.624 58.25H497.774L487.424 66.2V80.45H542.624V65.9Z" fill="white"/>
<path d="M65.74 47L144.97 47L163.4 71.13L163.4 155.87L144.97 180L65.74 180L49.4 158.34L57.38 152.26L70.87 169.93L140.03 169.93L153.33 152.26L153.33 74.74L140.03 57.26L70.87 57.26L57.57 74.74L57.57 92.03L84.93 92.03L84.93 102.48L47.31 102.48L47.31 71.13L65.74 47Z" fill="#FDE916"/>
<path d="M104.26 135H25.03L6.6 110.87V26.13L25.03 1.99999H104.26L120.6 23.66L112.62 29.74L99.13 12.07H29.97L16.67 29.74V107.26L29.97 124.74H99.13L112.43 107.26V89.97H85.07V79.52H122.69V110.87L104.26 135Z" fill="#FDE916"/>
<path d="M265.8 175.216C264.36 175.216 263.112 175.012 262.056 174.604C261.024 174.196 260.22 173.5 259.644 172.516C259.092 171.508 258.816 170.152 258.816 168.448V149.944H262.128V168.88C262.128 169.912 262.404 170.716 262.956 171.292C263.532 171.844 264.336 172.12 265.368 172.12H268.752V175.216H265.8ZM255.504 158.368V155.776H268.752V158.368H255.504ZM282.356 175.648C280.676 175.648 279.2 175.36 277.928 174.784C276.656 174.208 275.576 173.452 274.688 172.516C273.824 171.556 273.164 170.488 272.708 169.312C272.276 168.136 272.06 166.936 272.06 165.712V165.064C272.06 163.84 272.288 162.64 272.744 161.464C273.2 160.264 273.872 159.196 274.76 158.26C275.648 157.3 276.728 156.544 278 155.992C279.272 155.416 280.724 155.128 282.356 155.128C283.988 155.128 285.44 155.416 286.712 155.992C287.984 156.544 289.064 157.3 289.952 158.26C290.84 159.196 291.512 160.264 291.968 161.464C292.424 162.64 292.652 163.84 292.652 165.064V165.712C292.652 166.936 292.424 168.136 291.968 169.312C291.536 170.488 290.876 171.556 289.988 172.516C289.124 173.452 288.056 174.208 286.784 174.784C285.512 175.36 284.036 175.648 282.356 175.648ZM282.356 172.552C283.796 172.552 285.02 172.24 286.028 171.616C287.06 170.968 287.84 170.104 288.367 169.024C288.919 167.944 289.195 166.732 289.195 165.388C289.195 164.02 288.919 162.796 288.367 161.716C287.816 160.636 287.024 159.784 285.992 159.16C284.984 158.536 283.772 158.224 282.356 158.224C280.964 158.224 279.752 158.536 278.72 159.16C277.688 159.784 276.896 160.636 276.344 161.716C275.792 162.796 275.516 164.02 275.516 165.388C275.516 166.732 275.78 167.944 276.308 169.024C276.86 170.104 277.64 170.968 278.648 171.616C279.68 172.24 280.916 172.552 282.356 172.552ZM314.263 175.648C312.607 175.648 311.167 175.36 309.943 174.784C308.743 174.208 307.747 173.44 306.955 172.48C306.163 171.496 305.563 170.416 305.155 169.24C304.771 168.064 304.579 166.888 304.579 165.712V165.064C304.579 163.84 304.771 162.64 305.155 161.464C305.563 160.288 306.163 159.232 306.955 158.296C307.771 157.336 308.779 156.568 309.979 155.992C311.179 155.416 312.583 155.128 314.191 155.128C315.799 155.128 317.239 155.428 318.511 156.028C319.807 156.628 320.839 157.48 321.607 158.584C322.399 159.664 322.843 160.948 322.939 162.436H319.627C319.459 161.236 318.907 160.24 317.971 159.448C317.035 158.632 315.775 158.224 314.191 158.224C312.823 158.224 311.683 158.536 310.771 159.16C309.859 159.784 309.175 160.636 308.719 161.716C308.263 162.796 308.035 164.02 308.035 165.388C308.035 166.708 308.263 167.92 308.719 169.024C309.175 170.104 309.859 170.968 310.771 171.616C311.707 172.24 312.871 172.552 314.263 172.552C315.343 172.552 316.279 172.36 317.071 171.976C317.863 171.592 318.499 171.076 318.979 170.428C319.459 169.78 319.747 169.048 319.843 168.232H323.155C323.083 169.744 322.639 171.052 321.823 172.156C321.031 173.26 319.975 174.124 318.655 174.748C317.359 175.348 315.895 175.648 314.263 175.648ZM327.851 175V148.72H331.307V164.416H330.443C330.443 162.52 330.683 160.888 331.163 159.52C331.667 158.128 332.435 157.06 333.467 156.316C334.499 155.572 335.819 155.2 337.427 155.2H337.571C339.875 155.2 341.615 155.968 342.791 157.504C343.967 159.016 344.555 161.188 344.555 164.02V175H341.099V163.3C341.099 161.74 340.655 160.528 339.767 159.664C338.903 158.8 337.775 158.368 336.383 158.368C334.847 158.368 333.611 158.884 332.675 159.916C331.763 160.924 331.307 162.256 331.307 163.912V175H327.851ZM351.814 175V155.776H355.27V175H351.814ZM348.862 158.512V155.776H355.27V158.512H348.862ZM352.786 152.68C352.018 152.68 351.442 152.476 351.058 152.068C350.698 151.66 350.518 151.144 350.518 150.52C350.518 149.896 350.698 149.38 351.058 148.972C351.442 148.564 352.018 148.36 352.786 148.36C353.554 148.36 354.118 148.564 354.478 148.972C354.862 149.38 355.054 149.896 355.054 150.52C355.054 151.144 354.862 151.66 354.478 152.068C354.118 152.476 353.554 152.68 352.786 152.68ZM362.169 175V148.72H365.625V175H362.169ZM359.505 151.456V148.72H365.625V151.456H359.505ZM372.469 175V148.72H375.925V175H372.469ZM369.805 151.456V148.72H375.925V151.456H369.805ZM406.766 175L395.93 163.444C394.826 162.244 393.962 161.212 393.338 160.348C392.738 159.484 392.306 158.668 392.042 157.9C391.802 157.132 391.682 156.304 391.682 155.416C391.682 153.856 391.97 152.56 392.546 151.528C393.146 150.496 394.082 149.728 395.354 149.224C396.626 148.696 398.27 148.432 400.286 148.432C401.078 148.432 401.966 148.468 402.95 148.54C403.934 148.612 404.81 148.696 405.578 148.792V151.816C405.098 151.768 404.474 151.72 403.706 151.672C402.938 151.6 402.182 151.552 401.438 151.528C400.694 151.48 400.082 151.456 399.602 151.456C397.898 151.456 396.698 151.804 396.002 152.5C395.33 153.172 394.994 154.168 394.994 155.488C394.994 156.544 395.234 157.516 395.714 158.404C396.218 159.292 396.998 160.3 398.054 161.428L410.834 175H406.766ZM397.838 175.648C395.99 175.648 394.37 175.3 392.978 174.604C391.586 173.908 390.506 172.96 389.738 171.76C388.97 170.56 388.586 169.228 388.586 167.764V167.224C388.586 165.496 389.066 163.972 390.026 162.652C391.01 161.308 392.222 160.228 393.662 159.412L395.462 161.824C394.406 162.352 393.542 163.132 392.87 164.164C392.222 165.172 391.898 166.288 391.898 167.512C391.898 168.64 392.162 169.588 392.69 170.356C393.242 171.124 393.962 171.712 394.85 172.12C395.762 172.504 396.758 172.696 397.838 172.696C399.518 172.696 400.97 172.228 402.194 171.292C403.418 170.332 404.354 168.928 405.002 167.08C405.674 165.208 406.01 162.892 406.01 160.132H409.106C409.106 162.532 408.854 164.692 408.35 166.612C407.87 168.508 407.15 170.128 406.19 171.472C405.23 172.816 404.042 173.848 402.626 174.568C401.234 175.288 399.638 175.648 397.838 175.648ZM401.834 160.6V157.864H411.266V160.6H401.834ZM423.722 182.2V155.776H426.458V164.092L425.81 164.02C425.93 161.956 426.362 160.276 427.106 158.98C427.874 157.66 428.87 156.688 430.094 156.064C431.318 155.44 432.65 155.128 434.09 155.128C435.482 155.128 436.742 155.392 437.87 155.92C439.022 156.448 440.006 157.168 440.822 158.08C441.638 158.992 442.262 160.048 442.694 161.248C443.126 162.448 443.342 163.72 443.342 165.064V165.712C443.342 167.056 443.114 168.328 442.658 169.528C442.202 170.728 441.554 171.784 440.714 172.696C439.898 173.608 438.914 174.328 437.762 174.856C436.634 175.384 435.386 175.648 434.018 175.648C432.65 175.648 431.342 175.348 430.094 174.748C428.846 174.148 427.814 173.176 426.998 171.832C426.182 170.488 425.714 168.724 425.594 166.54L427.178 169.42V182.2H423.722ZM433.478 172.624C434.774 172.624 435.902 172.324 436.862 171.724C437.822 171.1 438.566 170.248 439.094 169.168C439.622 168.064 439.886 166.804 439.886 165.388C439.886 163.948 439.622 162.688 439.094 161.608C438.566 160.528 437.822 159.688 436.862 159.088C435.902 158.464 434.774 158.152 433.478 158.152C432.326 158.152 431.258 158.416 430.274 158.944C429.29 159.448 428.498 160.192 427.898 161.176C427.322 162.136 427.034 163.3 427.034 164.668V166.324C427.034 167.644 427.334 168.772 427.934 169.708C428.534 170.644 429.326 171.364 430.31 171.868C431.294 172.372 432.35 172.624 433.478 172.624ZM448.758 175V148.72H452.214V175H448.758ZM446.094 151.456V148.72H452.214V151.456H446.094ZM470.471 175V169.24H469.895V162.58C469.895 161.26 469.547 160.264 468.851 159.592C468.179 158.92 467.183 158.584 465.863 158.584C465.119 158.584 464.351 158.596 463.559 158.62C462.767 158.644 462.011 158.668 461.291 158.692C460.571 158.716 459.947 158.752 459.419 158.8V155.776C459.947 155.728 460.499 155.692 461.075 155.668C461.675 155.62 462.287 155.596 462.911 155.596C463.535 155.572 464.135 155.56 464.711 155.56C466.679 155.56 468.287 155.8 469.535 156.28C470.783 156.736 471.707 157.492 472.307 158.548C472.907 159.604 473.207 161.032 473.207 162.832V175H470.471ZM464.171 175.504C462.731 175.504 461.483 175.264 460.427 174.784C459.395 174.28 458.591 173.56 458.015 172.624C457.463 171.688 457.187 170.56 457.187 169.24C457.187 167.872 457.487 166.732 458.087 165.82C458.711 164.908 459.611 164.224 460.787 163.768C461.963 163.288 463.379 163.048 465.035 163.048H470.255V165.64H464.891C463.499 165.64 462.431 165.976 461.687 166.648C460.943 167.32 460.571 168.184 460.571 169.24C460.571 170.296 460.943 171.148 461.687 171.796C462.431 172.444 463.499 172.768 464.891 172.768C465.707 172.768 466.487 172.624 467.231 172.336C467.975 172.024 468.587 171.52 469.067 170.824C469.571 170.104 469.847 169.12 469.895 167.872L470.831 169.24C470.711 170.608 470.375 171.76 469.823 172.696C469.295 173.608 468.551 174.304 467.591 174.784C466.655 175.264 465.515 175.504 464.171 175.504ZM478.184 182.488V179.392H480.956C481.772 179.392 482.456 179.284 483.008 179.068C483.584 178.876 484.052 178.54 484.412 178.06C484.796 177.58 485.108 176.944 485.348 176.152L491.396 155.776H494.78L488.372 177.052C487.988 178.324 487.448 179.356 486.752 180.148C486.056 180.964 485.204 181.552 484.196 181.912C483.212 182.296 482.06 182.488 480.74 182.488H478.184ZM484.052 174.568V171.688H488.228V174.568H484.052ZM483.692 174.568L476.816 155.776H480.344L486.932 174.568H483.692Z" fill="white"/>
</g>
<defs>
<clipPath id="clip0_7_15">
<rect width="557" height="187" fill="white"/>
</clipPath>
</defs>
</svg>
