<svg width="557" height="187" viewBox="0 0 557 187" fill="none" xmlns="http://www.w3.org/2000/svg">
<g clip-path="url(#clip0_12_68)">
<path d="M236.65 73.85H181.45V122H173.5V17H246.4L253.75 34.55V49.25L236.65 73.85ZM245.8 36.05L241.15 24.95H181.45V65.75H232.3L245.8 46.7V36.05ZM282.55 122L267.25 103.25V17H275.35V100.4L286.45 113.9H298V122H282.55ZM371.241 121.85V115.7L362.841 122H322.191L307.791 110V62.15L322.191 50.45H362.991L371.241 58.85V50.45H379.041V121.85H371.241ZM371.241 70.1L360.291 58.25H325.041L315.891 65.9V106.4L325.041 113.9H360.741L371.241 105.8V70.1ZM451.405 122.3H410.155L394.105 110.6V62L410.155 50.3H451.405L465.805 62.15V74.45H457.705V65.9L448.705 58.4H412.555L402.205 66.2V106.4L412.555 114.2H448.705L457.705 106.55V98.15H465.805V110.3L451.405 122.3ZM487.424 88.1V106.1L497.774 113.9H533.624L543.074 105.95L548.474 112.25L536.324 122H495.224L479.324 110.3V62L495.074 50.45H536.324L550.724 62.15V88.1H487.424ZM542.624 65.9L533.624 58.25H497.774L487.424 66.2V80.45H542.624V65.9Z" fill="white"/>
<path d="M65.74 47L144.97 47L163.4 71.13L163.4 155.87L144.97 180L65.74 180L49.4 158.34L57.38 152.26L70.87 169.93L140.03 169.93L153.33 152.26L153.33 74.74L140.03 57.26L70.87 57.26L57.57 74.74L57.57 92.03L84.93 92.03L84.93 102.48L47.31 102.48L47.31 71.13L65.74 47Z" fill="#FDE916"/>
<path d="M104.26 135H25.03L6.6 110.87V26.13L25.03 1.99999H104.26L120.6 23.66L112.62 29.74L99.13 12.07H29.97L16.67 29.74V107.26L29.97 124.74H99.13L112.43 107.26V89.97H85.07V79.52H122.69V110.87L104.26 135Z" fill="#FDE916"/>
</g>
<defs>
<clipPath id="clip0_12_68">
<rect width="557" height="187" fill="white"/>
</clipPath>
</defs>
</svg>
